<?xml version="1.0" encoding="utf-8"?>
<!-- Generator: Adobe Illustrator 27.0.1, SVG Export Plug-In . SVG Version: 6.00 Build 0)  -->
<svg version="1.1" id="Слой_1" xmlns="http://www.w3.org/2000/svg" xmlns:xlink="http://www.w3.org/1999/xlink" x="0px" y="0px"
	 viewBox="0 0 300 250" style="enable-background:new 0 0 595.3 841.9;" xml:space="preserve">
<style type="text/css">
	.st0{fill: lightgreen;stroke:#000000;stroke-miterlimit:10;}
</style>
<polygon class="st0" points="165.4,242 165.4,208.3 282.6,208.3 164.7,90.4 228.6,90 138.6,0 48.2,90.4 117.9,90.4 0,208.3 
	117.9,208.3 118.7,242 "/>
<path d="M 138.5 0.5 l -20 10 20 10 20 -10 -20 -10" stroke="goldenrod" fill="yellow" />
<path d="M 200 80 l -20 20 40 0 -20 -20" stroke="darkred" fill="red" />
<path d="M 100 150 l -15 20 10 -4 10 4 -5 -20" stroke="blue" fill="cyan" />
<path d="M 180 170 l -15 20 10 -4 10 4 -5 -20" stroke="purple" fill="pink" />
</svg>
